<svg width="114" height="34" fill="none" xmlns="http://www.w3.org/2000/svg">
  <path d="M42.57 8.38c0-2.41-1.26-3.7-2.97-3.7-1.72 0-3.01 1.29-3.01 3.74 0 2.43 1.27 3.7 2.97 3.7 1.73 0 3.01-1.31 3.01-3.74Zm-.71.02c0 2.08-.92 3.08-2.28 3.08-1.36 0-2.28-1-2.28-3.08s.92-3.08 2.28-3.08c1.36 0 2.28 1 2.28 3.08Zm1.55-.91h1.83V12h.69V7.49h1.83V6.9H43.4v.59ZM48.82 12h.7V9.61h.38c.76 0 1.02.26 1.4.89l.9 1.5h.77l-1.03-1.71c-.3-.51-.58-.84-1.17-.99.3-.11.43-.29.6-.59l.48-.85c.17-.29.3-.43.82-.43v-.59c-.86 0-1.1.29-1.48.94l-.48.85c-.17.31-.3.44-.83.44h-.37V6.9h-.69V12Zm5.25-5.1v7.2h.69v-2.77c.47.52.99.79 1.63.79 1.17 0 2.08-.93 2.08-2.71 0-1.73-.85-2.63-2-2.63-.67 0-1.24.33-1.71.86V6.9h-.7Zm2.27.49c.85 0 1.44.68 1.44 2.07 0 1.4-.6 2.07-1.5 2.07-.57 0-1.08-.29-1.52-.8V8.25c.47-.53.99-.86 1.58-.86Zm3.83 2.06c0-1.48.7-2.09 1.58-2.09.88 0 1.58.61 1.58 2.09s-.7 2.09-1.58 2.09c-.88 0-1.58-.61-1.58-2.09Zm3.85-.02c0-1.81-1.02-2.65-2.25-2.65-1.24 0-2.3.84-2.3 2.69 0 1.83 1.04 2.65 2.26 2.65 1.25 0 2.29-.86 2.29-2.69Zm5.43-2.53h-.62l-2.87 4.01V6.9h-.65V12h.62l2.87-4.01V12h.65V6.9Zm-2.07-1.17c-.64 0-.87-.38-.87-.93h-.56c0 .87.43 1.4 1.43 1.4s1.43-.53 1.43-1.4h-.56c0 .55-.23.93-.87.93Zm3.12 1.76h1.83V12h.69V7.49h1.83V6.9H70.5v.59Zm7.4-.15c.78 0 1.36.5 1.36 1.72h-2.95c.1-1.1.71-1.72 1.58-1.72Zm2.02 2.25.01-.38c0-1.59-.8-2.43-2-2.43-1.32 0-2.32.98-2.32 2.74 0 1.71.93 2.6 2.3 2.6.65 0 1.34-.2 1.88-.54l-.2-.55a3 3 0 0 1-1.59.52c-.98 0-1.66-.6-1.69-1.96h3.61ZM83.48 12h2.18c1.24 0 1.83-.51 1.83-1.37 0-.61-.3-1.07-.98-1.26.52-.19.77-.58.77-1.13 0-.89-.64-1.34-1.72-1.34h-2.08V12Zm.68-.55V9.68h1.44c.91 0 1.21.33 1.21.89 0 .55-.3.88-1.21.88h-1.44Zm0-2.32V7.47h1.29c.81 0 1.15.26 1.15.83s-.34.83-1.15.83h-1.29Zm-42.28 8.79h-2.09L36.35 28h1.78l.74-2.35h3.8L43.4 28h1.84l-3.37-10.08Zm-1.1 1.74 1.45 4.6h-2.91l1.47-4.6Zm6.06 1.2v10.08h1.74v-3.78c.57.67 1.22 1 2.02 1 1.6 0 2.85-1.32 2.85-3.83 0-2.32-1.09-3.64-2.69-3.64-.86 0-1.58.4-2.18 1.1v-.93h-1.74Zm3.35 1.32c.88 0 1.53.7 1.53 2.3 0 1.59-.65 2.3-1.59 2.3-.54 0-1.06-.25-1.55-.77v-3c.53-.55 1.05-.83 1.61-.83Zm5.05-1.32v10.08h1.74v-3.78c.57.67 1.22 1 2.02 1 1.6 0 2.85-1.32 2.85-3.83 0-2.32-1.09-3.64-2.69-3.64-.86 0-1.58.4-2.18 1.1v-.93h-1.74Zm3.35 1.32c.88 0 1.53.7 1.53 2.3 0 1.59-.65 2.3-1.59 2.3-.54 0-1.06-.25-1.55-.77v-3c.53-.55 1.05-.83 1.61-.83Zm9.56 4.56c-1.82 0-3.06-1.06-3.06-3.68 0-2.65 1.26-3.77 3.02-3.77 1.05 0 1.86.4 2.68 1l.44-1.59a5.26 5.26 0 0 0-3.1-.95c-2.86 0-4.8 1.85-4.8 5.34 0 3.36 1.8 5.08 4.61 5.08 1.25 0 2.36-.34 3.3-.88v-4.67h-3.58V24h1.9v2.49c-.44.17-.89.25-1.4.25Zm7.9-4.66c.86 0 1.31.35 1.31 1.29v.28a6.43 6.43 0 0 0-1.06-.09c-2.27 0-3.24.9-3.24 2.4 0 1.44.9 2.2 2.13 2.2.84 0 1.57-.34 2.18-.97.05.5.12.7.19.81h1.63a4.72 4.72 0 0 1-.14-1.62v-3.15c0-1.9-1-2.54-2.64-2.54a6.7 6.7 0 0 0-2.96.7l.37 1.32a5.1 5.1 0 0 1 2.22-.63Zm-.27 4.77c-.62 0-1.02-.33-1.02-1.06 0-.77.46-1.16 1.7-1.16.33 0 .54.02.9.08v1.43c-.43.4-1 .71-1.58.71ZM81.23 28h1.74V17.92h-1.74V28Zm4.12 0h1.74V17.92h-1.74V28Zm7-6.05c.85 0 1.42.56 1.43 1.85h-3.06c.11-1.22.75-1.85 1.64-1.85Zm3.02 2.97c.02-.25.04-.5.04-.76 0-2.33-1.2-3.47-3-3.47-1.94 0-3.44 1.33-3.44 3.84 0 2.4 1.37 3.64 3.5 3.64a6.1 6.1 0 0 0 2.74-.66l-.36-1.25c-.77.38-1.46.6-2.16.6-1.09 0-1.83-.53-1.94-1.94h4.62Zm6.14-4.19a1.98 1.98 0 0 0-.43-.04c-.95 0-1.67.6-2.07 1.28v-1.11h-1.74V28h1.74v-4.76a3 3 0 0 1 2.05-.98c.16 0 .34.01.45.03v-1.56Zm1.21 10.24c.22.04.57.05.83.05 1.7 0 2.46-.65 3.31-3.19l2.36-6.97h-1.71l-1.68 5.45-1.65-5.45h-1.78l2.28 6.97h.5c-.56 1.5-.99 1.78-1.76 1.78-.24 0-.46-.03-.7-.07v1.43Z" fill="#93989D"/>
  <path opacity=".15" d="M4.23 33.5A3.71 3.71 0 0 1 .5 29.75V4.25A3.76 3.76 0 0 1 4.23.5h105.54a3.71 3.71 0 0 1 3.73 3.75v25.5a3.77 3.77 0 0 1-3.73 3.75H4.23Z" stroke="#4B545B"/>
  <path d="M24.24 6.11h-12.4a4.7 4.7 0 0 0-4.7 4.7v12.4c0 2.58 2.1 4.68 4.7 4.68h12.4c2.59 0 4.69-2.1 4.69-4.69V10.8a4.7 4.7 0 0 0-4.7-4.69Z" fill="#E14459"/>
  <path d="M12.46 7.54a.62.62 0 0 0-.62.62.62.62 0 0 0 .62.61.62.62 0 0 0 .62-.62.62.62 0 0 0-.62-.61Zm11.08 0a.62.62 0 0 0-.62.62.62.62 0 0 0 .62.61.62.62 0 0 0 .62-.62.62.62 0 0 0-.62-.61Z" fill="#C73148"/>
  <path d="M12.43 8.07c-.21.01-.2.32-.2.32a6.16 6.16 0 0 0 5.74 3.36 6.21 6.21 0 0 0 5.77-3.37s.04-.42-.4-.28a6.26 6.26 0 0 1-5.36 3.14 6.22 6.22 0 0 1-5.36-3.12.4.4 0 0 0-.19-.05Zm7.84 8.76-.66 1.96-.64-1.96h-.63l1.01 2.85h.49l.66-1.87.66 1.87h.49l1-2.85h-.6l-.65 1.96-.65-1.96h-.48Zm-3.5 0-1.28 2.85h.6l.25-.55.02-.04h1.32l.26.59h.62l-1.27-2.83v-.02h-.52Zm9.25 0v2.85h.58v-2.85h-.58Zm-16.65 0v2.85h.6v-1.16h1.32v1.16h.59v-2.85h-.59v1.15H9.96v-1.15h-.59Zm5.23 0v1.63c0 .47-.23.71-.66.71-.42 0-.66-.25-.66-.73v-1.6h-.59v1.62c0 .8.46 1.27 1.25 1.27.8 0 1.25-.47 1.25-1.29v-1.6h-.59Zm8.53 0v2.85h2.19v-.52h-1.61v-.7h1.07v-.52h-1.07v-.59h1.55v-.52h-2.13Zm-6.11.72.42.96.03.06h-.9l.03-.06.42-.96Z" fill="#fff"/>
</svg>
