<svg xmlns="http://www.w3.org/2000/svg" fill="none" viewBox="0 0 443 96"><path fill="#004C60" fill-rule="evenodd" d="M115.25 62.23c2.47-2.83 5.6-9.34 6.62-29.79l.12-11.02h35.73v40.83h8.09V79.7h-9.78v-7.63h-37.37v7.63h-9.8V62.23h6.4Zm11.5 0h20.59V30.4l-15.14.17-.4 9.31c-1.12 14.2-2.9 19.92-5.06 22.35Zm64.11-29.16c12.47 0 20.5 8.47 20.5 19.82 0 11.32-8.03 19.82-20.5 19.82s-20.5-8.47-20.5-19.82 8.03-19.82 20.5-19.82Zm0 30.64c5.93 0 10.3-4.29 10.3-10.82 0-6.39-4.44-10.74-10.3-10.74-5.7 0-10.2 4.18-10.2 10.74 0 6.3 4.34 10.82 10.2 10.82Z" clip-rule="evenodd"/><path fill="#004C60" d="M227.15 33.07h-8.96v39.64h9.9V48.48l11.78 12.6h.26l11.46-12.6v24.23h9.89V33.07h-8.7L240.3 47.44l-13.15-14.37Zm175.55 0h9.97v15.5l14.7-15.5h12.58L422.5 51.91l18.94 20.8h-13.01l-15.75-15.98V72.7h-9.97V33.07Zm-124.43 0h-9.96v39.64h9.96V56.73l15.75 15.98h13.01L288.1 51.9l17.46-18.84h-12.58l-14.7 15.5v-15.5ZM327.7 43.1l-.14 4.24c-.5 22.34-7.32 26.29-18.25 25.2v-9.7c5.87.4 8.25-2.4 8.52-17.48l.2-12.29h30V72.3h-10.11V43.1H327.7Zm37.29-10.03h-10.12v39.64h10.12l18.49-25.11v25.1h10.11V33.08h-10.11l-18.5 25.11v-25.1Z"/><path fill="url(#a)" d="M8.95 95.93h44.7V77.15H18.78V38.7l25.94-17.88 25.93 17.87v17h18.78V34.22c0-3.57-1.53-6.98-4.47-8.94L50.09 2.02c-3.58-2.38-7.16-2.34-10.74 0C29.81 8.3 9.65 21.97 5.37 24.83 1.07 27.7 0 31.07 0 34.23v52.76c0 4.3 4.47 8.94 8.94 8.94h.01Z"/><path fill="#FBBC33" d="M53.66 95.94V65.47c0-5.4 4.27-9.78 9.55-9.78h26.24l-35.8 40.25h.01Z"/><defs><linearGradient id="a" x1="1.99" x2="66.69" y1="19.04" y2="78.33" gradientUnits="userSpaceOnUse"><stop stop-color="#6BBD3F"/><stop offset=".43" stop-color="#2CA465"/><stop offset=".83" stop-color="#148F82"/><stop offset="1" stop-color="#0276A2"/></linearGradient></defs></svg>