<svg width="114" height="34" fill="none" xmlns="http://www.w3.org/2000/svg">
  <path d="M41.34 10.82c-.54.43-1.06.67-1.73.67-1.35 0-2.31-1-2.31-3.07 0-2.08.96-3.1 2.32-3.1.69 0 1.19.27 1.7.66l.23-.67a3 3 0 0 0-1.88-.63c-1.78 0-3.08 1.32-3.08 3.78 0 2.42 1.25 3.66 2.96 3.66a3.3 3.3 0 0 0 2.03-.69l-.24-.61ZM42.87 12h.7V9.61h.38c.76 0 1.02.26 1.4.89l.9 1.5h.77L46 10.29c-.3-.51-.58-.84-1.17-.99.3-.11.43-.29.6-.59l.48-.85c.17-.29.3-.43.82-.43v-.59c-.86 0-1.1.29-1.48.94l-.48.85c-.17.31-.3.44-.83.44h-.37V6.9h-.69V12Zm7.04-4.63c.72 0 1.08.31 1.08 1.15v.43a5.85 5.85 0 0 0-.89-.07c-1.66 0-2.39.62-2.39 1.69 0 1.02.65 1.55 1.55 1.55.67 0 1.28-.3 1.74-.78.02.39.06.56.12.66h.65c-.05-.13-.1-.4-.1-1.16V8.46c0-1.23-.62-1.68-1.66-1.68-.78 0-1.48.26-2 .58l.2.56a3.33 3.33 0 0 1 1.7-.55ZM51 10.76c-.42.42-.97.78-1.6.78-.6 0-1-.33-1-1.02 0-.75.46-1.13 1.7-1.13.28 0 .5.02.9.08v1.29Zm1.94-3.86v1.59c0 1.14.7 1.51 1.76 1.51.42 0 .9-.06 1.54-.23V12h.69V6.9h-.7v2.32a4.9 4.9 0 0 1-1.38.21c-.68 0-1.22-.15-1.22-1.09V6.9h-.7Zm7.49.47c.72 0 1.08.31 1.08 1.15v.43a5.85 5.85 0 0 0-.9-.07c-1.65 0-2.38.62-2.38 1.69 0 1.02.65 1.55 1.55 1.55.67 0 1.28-.3 1.74-.78.02.39.06.56.12.66h.65c-.05-.13-.1-.4-.1-1.16V8.46c0-1.23-.62-1.68-1.66-1.68-.78 0-1.48.26-2.01.58l.2.56a3.33 3.33 0 0 1 1.7-.55Zm1.08 3.39c-.42.42-.97.78-1.6.78-.6 0-1-.33-1-1.02 0-.75.46-1.13 1.7-1.13.28 0 .5.02.9.08v1.29Zm1.68-3.27h1.83V12h.7V7.49h1.82V6.9h-4.35v.59Zm6.1 3.96V9.44h1.34c.84 0 1.27.31 1.27 1.01 0 .69-.43 1-1.27 1h-1.34Zm1.39.55c1.2 0 1.9-.51 1.9-1.56 0-1.04-.7-1.56-1.85-1.56h-1.44V6.9h-.7V12h2.09Zm4.97 1.3h.67V12h3.92v1.3h.67v-1.85h-.51V6.9h-3.2c0 2.98-.52 3.99-1.13 4.55h-.42v1.85Zm2.2-5.81h1.86v3.94h-2.84c.48-.51.93-1.46.98-3.94Zm5.1-.59c-.11 3.25-.15 4.59-1.29 4.59l-.25-.02v.57l.31.02c1.46 0 1.8-.98 1.88-4.57h2.05V12h.69V6.9h-3.39Zm6.77 0c-1.19 0-1.9.52-1.9 1.53 0 .71.35 1.14 1 1.34L87.43 12h.74l1.28-2.1H91V12h.7V6.9h-2Zm.01 2.48c-.87 0-1.23-.32-1.23-.95 0-.63.36-.96 1.23-.96H91v1.91h-1.28Zm-47.85 8.54h-2.09L36.35 28h1.78l.74-2.35h3.8L43.4 28h1.84l-3.37-10.08Zm-1.1 1.74 1.45 4.6h-2.91l1.47-4.6ZM46.85 28h1.74v-4.94a2.9 2.9 0 0 1 1.86-.86c.55 0 .88.24.88.98V28h1.74v-5.32c0-1.48-.81-1.99-1.9-1.99-1.05 0-1.92.48-2.58 1.12v-.95h-1.74V28Zm14.64 0c-.07-.14-.14-.5-.14-1.62v-8.46H59.6v3.78c-.57-.67-1.22-1-2.02-1-1.6 0-2.85 1.35-2.85 3.86 0 2.32 1.1 3.6 2.69 3.6.86 0 1.58-.38 2.2-1.1.04.63.1.83.18.94h1.68ZM58 26.78c-.88 0-1.52-.7-1.52-2.3 0-1.59.64-2.3 1.58-2.3.54 0 1.06.25 1.55.77v3c-.53.55-1.05.83-1.6.83Zm9.8-6.05a1.98 1.98 0 0 0-.43-.04c-.95 0-1.67.6-2.07 1.28v-1.11h-1.74V28h1.74v-4.76a3 3 0 0 1 2.05-.98c.16 0 .34.01.45.03v-1.56Zm2.7 3.73c0-1.75.73-2.44 1.63-2.44.9 0 1.62.69 1.62 2.44s-.73 2.43-1.62 2.43c-.9 0-1.63-.68-1.63-2.43Zm4.99-.06c0-2.55-1.53-3.7-3.34-3.7-1.83 0-3.38 1.18-3.38 3.76 0 2.55 1.52 3.7 3.33 3.7 1.83 0 3.39-1.18 3.39-3.76Zm1.87 3.6h1.73v-7.14h-1.73V28Zm.86-8.16c.63 0 1.03-.4 1.03-.97 0-.56-.4-.96-1.03-.96s-1.02.4-1.02.96c0 .56.4.97 1.02.97Zm9.5 8.16c-.07-.14-.14-.5-.14-1.62v-8.46h-1.73v3.78c-.58-.67-1.22-1-2.02-1-1.6 0-2.86 1.35-2.86 3.86 0 2.32 1.1 3.6 2.7 3.6a2.8 2.8 0 0 0 2.19-1.1c.04.63.11.83.18.94h1.68Zm-3.48-1.22c-.89 0-1.53-.7-1.53-2.3 0-1.59.64-2.3 1.58-2.3.55 0 1.07.25 1.56.77v3c-.54.55-1.05.83-1.61.83Z" fill="#93989D"/>
  <path opacity=".15" d="M4.23 33.5A3.71 3.71 0 0 1 .5 29.75V4.25A3.76 3.76 0 0 1 4.23.5h105.54a3.71 3.71 0 0 1 3.73 3.75v25.5a3.77 3.77 0 0 1-3.73 3.75H4.23Z" stroke="#4B545B"/>
  <path d="M9.16 13.3a1.14 1.14 0 0 0-1.04.7 1.12 1.12 0 0 0-.1.43v5.48a1.13 1.13 0 0 0 1.58 1.04 1.11 1.11 0 0 0 .6-.6 1.13 1.13 0 0 0 .08-.44v-5.48a1.14 1.14 0 0 0-.5-.93 1.12 1.12 0 0 0-.62-.2Z" fill="#53B375"/>
  <path d="M9.16 21.07A1.15 1.15 0 0 1 8 19.9v-5.48a1.17 1.17 0 0 1 .34-.82 1.16 1.16 0 0 1 1.78.17 1.15 1.15 0 0 1 .2.65v5.48a1.16 1.16 0 0 1-1.16 1.16Zm0-7.74a1.12 1.12 0 0 0-.78.32 1.1 1.1 0 0 0-.32.78v5.48a1.1 1.1 0 0 0 1.71.9 1.11 1.11 0 0 0 .48-.9v-5.48a1.12 1.12 0 0 0-.32-.78 1.1 1.1 0 0 0-.77-.32Zm17.68-.03a1.13 1.13 0 0 0-1.13 1.13v5.48a1.13 1.13 0 0 0 1.57 1.04 1.12 1.12 0 0 0 .6-.6 1.13 1.13 0 0 0 .1-.44v-5.48a1.14 1.14 0 0 0-.7-1.04 1.13 1.13 0 0 0-.44-.09Z" fill="#53B375"/>
  <path d="M26.84 21.07a1.15 1.15 0 0 1-1.13-.93 1.17 1.17 0 0 1-.02-.23v-5.48a1.18 1.18 0 0 1 .33-.82 1.16 1.16 0 0 1 1.98.82v5.48a1.16 1.16 0 0 1-.93 1.13.85.85 0 0 1-.23.03Zm0-7.74a1.1 1.1 0 0 0-.9.49 1.1 1.1 0 0 0-.2.61v5.48a1.1 1.1 0 0 0 1.53 1.01 1.1 1.1 0 0 0 .67-1.01v-5.48a1.1 1.1 0 0 0-.48-.9 1.1 1.1 0 0 0-.62-.2ZM11.3 13.3v10.14a1.71 1.71 0 0 0 1.03 1.57 1.68 1.68 0 0 0 .66.13h1.8v2.88a1.13 1.13 0 0 0 1.76.93 1.15 1.15 0 0 0 .5-.93v-2.88h1.92v2.88a1.13 1.13 0 0 0 1.57 1.04 1.13 1.13 0 0 0 .69-1.04v-2.88h1.81a1.7 1.7 0 0 0 1.69-1.7v-10.1a.7.7 0 0 0 0-.01v-.02H11.3Z" fill="#53B375"/>
  <path d="M20.1 29.18a1.15 1.15 0 0 1-1.13-.93 1.17 1.17 0 0 1-.03-.23v-2.85h-1.86v2.85a1.16 1.16 0 0 1-1.8.96 1.15 1.15 0 0 1-.52-.96v-2.85H13a1.73 1.73 0 0 1-1.59-1.06 1.73 1.73 0 0 1-.13-.67V13.3l.03-.01h13.45v.02l-.03.01h.03v10.13a1.74 1.74 0 0 1-1.04 1.6 1.72 1.72 0 0 1-.67.13h-1.78v2.85a1.16 1.16 0 0 1-1.16 1.16Zm-3.08-4.07H19v2.9a1.1 1.1 0 1 0 2.2 0v-2.9h1.84a1.67 1.67 0 0 0 1.53-1.02 1.66 1.66 0 0 0 .13-.65v-10.1h.03-13.41v10.1a1.69 1.69 0 0 0 .74 1.39 1.66 1.66 0 0 0 .93.28h1.83v2.9a1.1 1.1 0 1 0 2.2 0v-2.9Zm7.7-11.78Zm0-.02Zm-3.43-6.88.15-.28.15-.28.15-.29.15-.28.15-.28.15-.28.15-.28.15-.29-.03-.01-.03-.02-.03-.02-.03-.01-.03-.02-.03-.02-.03-.01-.03-.02-.15.28-.15.28-.16.29-.15.28-.15.28-.15.28-.15.28-.15.29a6.68 6.68 0 0 0-5.92-.07l-.15-.28-.14-.27-.15-.27-.15-.28-.14-.27-.15-.27-.15-.28-.14-.27-.03.02-.03.01-.04.02-.03.02-.03.01-.03.02-.03.02-.03.01.14.28.15.27.15.27.14.27.15.28.14.27.15.27.15.27a6.73 6.73 0 0 0-3.53 5.87h13.34A6.76 6.76 0 0 0 22 6.9a6.68 6.68 0 0 0-.72-.47Zm-6.72 3.2a.62.62 0 0 1-.44-.18.65.65 0 0 1-.2-.45.63.63 0 0 1 .29-.53.64.64 0 0 1 .48-.1.62.62 0 0 1 .4.27.64.64 0 0 1 0 .71.65.65 0 0 1-.53.29Zm6.77 0a.63.63 0 0 1-.59-.38.64.64 0 0 1 .14-.7.64.64 0 0 1 .32-.18.62.62 0 0 1 .65.27.64.64 0 0 1-.52 1Z" fill="#53B375"/>
  <path d="M24.7 12.25H11.32v-.03a6.84 6.84 0 0 1 1.5-4.2 6.81 6.81 0 0 1 2.02-1.68l-1.17-2.18.3-.16 1.17 2.19a6.62 6.62 0 0 1 5.9.07L22.23 4l.3.16-1.2 2.26a6.75 6.75 0 0 1 3.38 5.8v.03Zm-13.33-.06h13.28a6.74 6.74 0 0 0-2-4.7 6.72 6.72 0 0 0-1.37-1.03l-.03-.02 1.2-2.25-.2-.11-1.2 2.25h-.02a6.7 6.7 0 0 0-4.88-.47 6.6 6.6 0 0 0-1.02.4h-.02l-1.17-2.18-.2.1 1.16 2.18-.02.02a6.72 6.72 0 0 0-3.5 5.8Zm9.97-2.52a.66.66 0 0 1-.66-.67.68.68 0 0 1 .52-.66.67.67 0 0 1 .6.19.67.67 0 0 1-.46 1.14Zm0-1.28a.6.6 0 0 0-.6.49.62.62 0 0 0 .17.55.61.61 0 0 0 .3.16.6.6 0 0 0 .68-.83.6.6 0 0 0-.55-.37Zm-6.77 1.28a.65.65 0 0 1-.46-.2.68.68 0 0 1-.2-.47.67.67 0 0 1 .4-.62.65.65 0 0 1 .73.15.68.68 0 0 1 .19.6.65.65 0 0 1-.19.34.68.68 0 0 1-.47.2Zm0-1.28a.6.6 0 0 0-.42.18.62.62 0 0 0-.18.43.6.6 0 0 0 .27.5.6.6 0 0 0 .46.1.6.6 0 0 0 .38-.26.62.62 0 0 0 .09-.46.6.6 0 0 0-.6-.5Z" fill="#53B375"/>
</svg>
