<svg xmlns="http://www.w3.org/2000/svg" width="114" height="34" fill="none"><g clip-path="url(#clip0_824_103538)"><path fill="#fff" stroke="#505154" d="M4.226 33.5a3.71 3.71 0 0 1-2.634-1.098A3.766 3.766 0 0 1 .5 29.746V4.254a3.763 3.763 0 0 1 1.091-2.657A3.707 3.707 0 0 1 4.226.5h105.548a3.71 3.71 0 0 1 2.634 1.098 3.766 3.766 0 0 1 1.092 2.656v25.492a3.766 3.766 0 0 1-1.091 2.657 3.707 3.707 0 0 1-2.635 1.097H4.226Z" opacity=".15"/><path fill="#4B545B" fill-rule="evenodd" d="M23.842 5.284c.14 1.283-.365 2.547-1.103 3.476-.77.915-2.002 1.614-3.202 1.524-.157-1.234.451-2.546 1.132-3.347.769-.909 2.105-1.605 3.173-1.653Zm3.928 7.4c-.134.08-2.353 1.413-2.329 4.132.028 3.284 2.854 4.37 2.888 4.381-.017.077-.442 1.567-1.502 3.08-.885 1.332-1.812 2.634-3.285 2.658-.7.016-1.173-.187-1.665-.398-.514-.22-1.05-.45-1.887-.45-.888 0-1.448.237-1.987.466-.466.197-.918.389-1.554.415-1.403.052-2.474-1.422-3.391-2.742-1.834-2.695-3.26-7.596-1.347-10.93.927-1.636 2.617-2.689 4.425-2.717.795-.016 1.559.292 2.228.563.511.207.968.392 1.342.392.328 0 .772-.178 1.29-.384.815-.326 1.812-.725 2.828-.617.695.02 2.673.276 3.949 2.149l-.003.002Z" clip-rule="evenodd" opacity=".6"/><path fill="#93989D" d="M42.38 17.92h-2.086L36.85 28h1.778l.742-2.352h3.794L43.906 28h1.848L42.38 17.92Zm-1.092 1.736 1.442 4.606h-2.912l1.47-4.606Zm5.776 1.204v10.08H48.8v-3.78c.574.672 1.218 1.008 2.016 1.008 1.596 0 2.856-1.33 2.856-3.836 0-2.324-1.092-3.64-2.688-3.64-.868 0-1.582.392-2.184 1.106v-.938h-1.736Zm3.346 1.316c.882 0 1.526.7 1.526 2.296 0 1.596-.644 2.31-1.582 2.31-.546 0-1.064-.252-1.554-.77v-3.01c.532-.546 1.05-.826 1.61-.826Zm4.775-1.316v10.08h1.736v-3.78c.574.672 1.218 1.008 2.016 1.008 1.596 0 2.856-1.33 2.856-3.836 0-2.324-1.092-3.64-2.688-3.64-.868 0-1.582.392-2.184 1.106v-.938h-1.736Zm3.346 1.316c.882 0 1.526.7 1.526 2.296 0 1.596-.644 2.31-1.582 2.31-.546 0-1.064-.252-1.554-.77v-3.01c.532-.546 1.05-.826 1.61-.826Zm7.543 5.138a6.39 6.39 0 0 0 3.178.854c2.198 0 3.654-1.204 3.654-3.15 0-3.542-4.788-2.296-4.788-4.438 0-.77.63-1.302 1.652-1.302.868 0 1.68.378 2.408.882l.448-1.568a5.15 5.15 0 0 0-2.842-.84c-2.03 0-3.43 1.162-3.43 3.01 0 3.416 4.788 2.198 4.788 4.48 0 .882-.714 1.456-1.89 1.456-.952 0-1.876-.378-2.73-.896l-.448 1.512Zm7.77-5.11h1.205v3.85c0 1.568.517 2.03 1.973 2.03.504 0 .953-.056 1.316-.126v-1.386c-.237.07-.517.14-.84.14-.546 0-.714-.21-.714-.924v-3.584h1.554V20.86h-1.553v-2.38h-1.736v2.38h-1.205v1.344Zm7.225 2.254c0-1.75.728-2.436 1.624-2.436.896 0 1.624.686 1.624 2.436s-.728 2.436-1.624 2.436c-.896 0-1.624-.686-1.624-2.436Zm4.984-.056c0-2.548-1.526-3.71-3.332-3.71-1.834 0-3.388 1.19-3.388 3.766 0 2.548 1.526 3.71 3.332 3.71 1.834 0 3.388-1.19 3.388-3.766Zm5.749-3.668a1.983 1.983 0 0 0-.434-.042c-.952 0-1.666.602-2.072 1.274V20.86H87.56V28h1.736v-4.76c.294-.308 1.05-.98 2.058-.98.154 0 .336.014.448.028v-1.554Zm4.072 1.218c.84 0 1.413.56 1.428 1.848h-3.067c.112-1.218.757-1.848 1.639-1.848Zm3.01 2.968a6.84 6.84 0 0 0 .041-.756c0-2.338-1.19-3.472-2.995-3.472-1.947 0-3.445 1.33-3.445 3.836 0 2.408 1.373 3.64 3.5 3.64.953 0 1.989-.252 2.745-.658l-.365-1.246c-.77.378-1.456.602-2.155.602-1.092 0-1.834-.532-1.947-1.946h4.62ZM38.18 8.91v.73h.62c1.17 0 1.87.51 1.87 1.39 0 .81-.6 1.33-1.63 1.33-.75 0-1.42-.27-1.99-.62l-.25.78c.61.36 1.39.6 2.23.6 1.55 0 2.52-.82 2.52-2.03 0-.87-.51-1.54-1.46-1.83.84-.26 1.36-.84 1.36-1.72 0-1.21-.99-1.86-2.21-1.86-.82 0-1.58.3-2.14.71l.27.75c.54-.4 1.11-.68 1.79-.68.77 0 1.41.37 1.41 1.19 0 .9-.78 1.26-1.7 1.26h-.69Zm6.556-.42c.69 0 1.04.29 1.04 1.08v.35c-.36-.05-.62-.06-.83-.06-1.65 0-2.39.62-2.39 1.71 0 1.02.65 1.55 1.54 1.55.66 0 1.25-.29 1.69-.76.02.39.07.55.12.64h.81c-.05-.13-.1-.38-.1-1.16V9.5c0-1.27-.65-1.72-1.72-1.72-.8 0-1.5.25-2.05.55l.22.68c.54-.31 1.08-.52 1.67-.52Zm-.41 3.95c-.56 0-.93-.32-.93-.96 0-.68.42-1.03 1.6-1.03.2 0 .37.01.78.07v1.22c-.39.38-.9.7-1.45.7ZM48.08 7.9V13h.86V8.6h2.26v-.7h-3.12Zm4.092 0v7.2h.86v-2.74c.44.51.94.76 1.55.76 1.18 0 2.09-.93 2.09-2.72 0-1.71-.83-2.62-1.97-2.62-.67 0-1.23.32-1.67.84V7.9h-.86Zm2.31.63c.8 0 1.33.62 1.33 1.93 0 1.33-.55 1.95-1.37 1.95-.52 0-1-.25-1.41-.72V9.3c.43-.48.91-.77 1.45-.77Zm3.003 6.59c.13.03.34.04.5.04.98 0 1.51-.37 2.19-2.28l1.78-4.98h-.86l-1.46 4.25-1.42-4.25h-.89l1.74 4.98h.27c-.48 1.34-.84 1.56-1.38 1.56-.2 0-.32-.03-.47-.06v.74Zm8.96-3.49c0-.57-.34-1.05-1.08-1.27.66-.2.98-.61.98-1.19 0-.92-.82-1.39-1.81-1.39-.67 0-1.26.22-1.7.51l.22.67c.42-.28.85-.48 1.38-.48.59 0 1.05.25 1.05.79s-.46.79-1.36.79h-.5v.66h.4c1.1 0 1.56.33 1.56.87 0 .47-.36.85-1.22.85-.62 0-1.14-.2-1.62-.49l-.21.69c.49.3 1.13.48 1.82.48 1.27 0 2.09-.59 2.09-1.49ZM71.9 7.9h-.76l-2.68 3.8V7.9h-.8V13h.76l2.68-3.8V13h.8V7.9Zm1.012.7h1.78V13h.85V8.6h1.78v-.7h-4.41v.7Zm7.452-.16c.72 0 1.25.47 1.26 1.59h-2.72c.11-1.02.66-1.59 1.46-1.59Zm2.06 2.2c.02-.15.02-.24.02-.42 0-1.61-.82-2.44-2.05-2.44-1.32 0-2.36.96-2.36 2.75 0 1.71.95 2.59 2.37 2.59.66 0 1.36-.19 1.9-.52l-.22-.65c-.54.31-1.04.49-1.57.49-.92 0-1.55-.54-1.61-1.8h3.52ZM85.912 13h2.29c1.25 0 1.85-.51 1.85-1.38 0-.6-.29-1.05-1-1.24.55-.19.79-.58.79-1.13 0-.9-.64-1.35-1.75-1.35h-2.18V13Zm.84-.63v-1.64h1.33c.85 0 1.13.3 1.13.82 0 .51-.28.82-1.13.82h-1.33Zm0-2.26V8.56h1.17c.76 0 1.08.24 1.08.78s-.32.77-1.08.77h-1.17Z"/></g><defs><clipPath id="clip0_824_103538"><path fill="#fff" d="M0 0h114v34H0z"/></clipPath></defs></svg>
