<svg viewBox="0 0 80 80" xmlns="http://www.w3.org/2000/svg"><g fill="#737476"><path d="m14.55 14.55v-12.13h-12.13v-2.42h14.55v16.97h-16.97v-14.55h2.42v12.13z"/><path d="m12.12 4.85v7.27h-7.27v-7.27zm65.46 9.7v-12.13h2.42v14.55h-16.97v-16.97h14.55v2.42h-12.13v12.13z"/><path d="m75.15 4.85v7.27h-7.27v-7.27zm-60.6 72.73v-12.13h-12.13v12.13h-2.42v-14.55h16.97v16.97h-14.55v-2.42z"/><path d="m12.12 67.88v7.27h-7.27v-7.27zm14.55-67.88v4.85h-2.43v-4.85zm9.69 2.42h4.85v2.43h-4.85v2.42h-2.42v2.43h-4.85v-4.85h2.43v-2.43h2.42v-2.42h2.42z"/><path d="m29.09 0h2.43v2.42h-2.43zm21.82 2.42h-7.27v-2.42h7.27zm4.85-2.42h4.85v2.42h-4.85zm-36.37 2.42h2.43v2.43h-2.43zm33.94 0h2.43v2.43h-2.43zm-9.69 7.28h-7.28v-2.43h9.7v2.43h2.42v-2.43h-2.42v-2.42h7.27v2.42h-2.42v4.85h-4.85v4.85h2.42v2.42h-2.42v2.43h2.42v-2.43h2.43v2.43h2.42v4.85h2.43v2.42h2.42v-2.42h2.43v4.85h-2.43v2.42h-2.42v-2.42h-2.43v-2.43h-4.85v-2.42h.01-.01v-2.43h-7.28v-2.42h2.44zm16.97-4.85v4.85h-2.43v-4.85zm-38.79 9.7v2.42h-2.43v-4.85h2.43v-2.42h-2.43v-2.43h7.28v2.43h-2.43v4.85z"/><path d="m58.18 12.12h-4.85v-4.85h2.43v2.43h2.42zm-24.24 12.12v2.43h-2.42v-2.43h-2.43v-2.42h2.43v-4.85h2.42v-2.42h-2.42v2.42h-2.43v-2.42h-2.42v-2.43h7.27v-2.42h2.42v9.69h-2.42v2.43h4.85v2.42zm7.27-12.12v9.7h-2.41v-2.43h-.01.01v-2.42h-.01.01v-2.42h-.01.01v-2.43h-.01zm9.7 0h2.42v2.43h-2.42z"/><path d="m26.67 19.39h-2.43v2.43h-9.69v-2.43h7.27v-2.42h2.42v-2.42h2.43v2.42h2.42v4.85h-2.42zm21.81-4.84h2.43v2.42h-2.43zm12.13 7.27h-2.43v-2.43h-2.42v2.43h-2.43v-2.43h-2.42v-2.42h2.42v-2.42h2.43v2.42h2.42v-2.42h2.43v4.84h2.42v2.43h2.42v2.42h-2.42v2.43h-2.42zm-41.22 33.94v-2.43h2.43v2.43h2.42v2.42h-2.42v7.27h-2.43v-4.84h-7.27v-4.85h-2.42v2.42h-2.43v2.43h-2.42v-4.85h2.42v-2.43h-4.85v7.28h-2.42v-12.13h2.42v-2.42h2.43v4.85h4.85v-7.27h2.42v2.42h2.43v2.42h2.42v-2.42h-2.42v-2.42h4.84v9.69h-2.42v-2.42h-2.42v2.42h2.42v2.43h-2.42v2.42h2.42v-2.42z"/><path d="m12.117 38.79v.01h7.273v2.42h-9.69v2.41h-2.43v-4.84h-2.42v-4.85h2.42v2.42h2.43v-2.42h7.27v-2.42h-4.85v-2.43h4.85v-2.42h-4.85v2.42h-2.42v2.43h-2.43v-9.7h-2.42v4.85h-2.43v-4.85h-2.42v-2.43h12.12v4.85h7.27v4.85h7.28v2.43h-7.28v4.84h-7.27v2.43zm-12.117 7.27v-7.26h4.85v2.42h-2.43v4.84z"/><path d="m0 26.67h2.42v2.42h-2.42zm2.42 4.85h2.43v2.42h-2.43zm2.43 12.12h2.42v2.42h-2.42zm55.76 29.09h-2.43v2.42h-4.85v-2.42h2.43v-2.43h2.42v-2.42h-2.42v-4.85h2.42v-4.85h7.27v-2.42h4.85v-4.85h2.43v4.85h2.42v2.42h-2.42v2.43h-2.43v4.84h4.85v2.43h-4.85v2.42h4.85v7.28h-4.85v-4.85h-4.85v-2.43h-2.42v2.43h2.42v2.42h-4.84zm0-4.85h7.27v-7.27h-7.27z"/><path d="m77.58 70.3h-2.43v-2.42h4.85v4.85h-2.42zm2.42-12.12v4.85h-2.42v-4.85zm-2.42-4.85v2.43h-2.43v-7.28h2.43v2.43h2.42v2.42zm-14.55-2.42h2.42v2.42h-4.84v-7.27h2.42zm4.85-4.85v2.42h-2.43v-4.84h7.28v2.42zm2.42-4.86h2.43v2.43h-2.43v-2.41h-4.85v2.41h-2.42v-2.41h-2.42v-2.42h2.42v2.4h2.42v-2.4h4.85zm-12.12-4.84v-2.42h4.85v-2.42h2.42v7.27h-2.42v-2.43h-2.42v2.43h-4.85v-2.43zm16.97 0v-4.84h4.85v2.42h-2.42v2.42zm-4.85-7.27h2.43v2.43h-7.28v-4.85h2.43v2.42zm7.28-4.85v2.43h-2.43v-2.43h-2.42v-2.42h2.42v-2.43h2.43v2.43h2.42v2.42zm-9.7 0h4.85v2.43h-4.85zm-2.43-4.85h2.43v2.43h-2.43z"/><path d="m70.3 19.39h2.43v2.43h-2.43zm2.43 7.28h2.42v2.42h-2.42zm0 9.69h2.42v2.43h-2.42zm0 9.7h2.42v2.42h-2.42zm-4.85 2.42h2.42v2.43h-2.42zm4.85 12.13h2.42v2.42h-2.42zm-9.7 2.42h2.42v2.42h-2.42zm12.12 0h2.43v2.42h-2.43zm-9.7 12.12h2.43v2.43h-2.43zm9.7 2.43h2.43v2.42h-2.43zm2.43-33.95v2.43h-2.43v-7.26h2.43v2.4h2.42v2.43zm-50.91-21.81v4.85h-2.43v-4.85zm29.09 0h2.42v2.42h-2.42zm-16.97 2.42h2.42v2.43h-2.41v-2.43zm-4.85 7.28h-4.85v-4.85h2.43v2.42h2.42zm2.42 2.42h-2.42v-2.42h2.42v-2.43h2.43v7.27h-2.43zm4.85-4.85h2.43v2.43h-2.44v-2.43z"/><path d="m43.64 41.2v-4.84h-2.44v-2.42h2.44v-2.42h7.27v2.42h-4.85v2.42h2.42v2.43h-2.42v2.41h2.42v2.43h-2.42v2.43h-2.42v-2.43h-2.44v-2.43zm-24.25-2.41v-2.43h7.28v-2.42h7.27v7.26h2.42v2.43h-7.27v-2.41h-2.42v2.41h-4.85v2.43h-2.43v-4.86h4.85v-2.4zm9.7-2.425v4.855h2.43v-4.855z"/><path d="m48.48 33.94h2.43v2.42h-2.43zm4.85 0h2.43v2.42h-2.43zm-2.42 2.42h2.42v2.43h-2.42zm-14.55 2.44h2.43v2.42h-2.43zm12.12 7.26v-7.26h2.43v2.4h2.42v2.44h2.43v2.42h-2.43v2.42h-4.85v4.85h-2.42v-2.42h-2.42v-2.43h2.42v-2.42z"/><path d="m53.33 38.8h2.43v2.42h-2.43zm2.43 2.4h2.42v2.43h-2.42zm-19.4 2.44h2.43v2.42h-2.43zm21.82 0h2.43v2.42h-2.43zm-26.66 2.42v4.85h-2.43v-4.85zm2.42 0h2.42v2.42h-2.42zm19.39 2.42h2.43v2.43h-2.43zm-26.66 12.13v-4.85h-2.43v-2.43h-2.42v-2.42h4.85v2.42h4.85v2.43h-2.43v4.85zm14.54-9.7v2.42h-4.85v-2.42zm14.55 2.42v9.7h-2.43v-4.85h-4.85v-2.42h.01-.01v-2.43h2.43v-2.42h2.42v2.42zm0-2.42h2.42v2.42h-2.42zm-31.52 12.12h2.43v2.42h-2.43zm4.85 12.12v4.85h-9.7v-12.12h2.43v2.42h2.42v2.43h-2.42v2.42h2.42v-2.42h7.28v2.42zm4.85-7.27h2.42v2.42h-2.42zm12.12 7.27h2.42v2.43h-2.42zm4.85 0h2.42v2.43h-2.42z"/><path d="m43.64 72.73v4.85h-2.43v2.42h-4.85v-2.42h-2.42v-2.43h2.42v-2.42h2.43v2.42h2.41v-2.42h.01-.01v-2.43h-2.4v-2.42h-2.44v-2.43h-2.42v2.43h-2.42v2.42h-2.43v-4.85h2.43v-2.42h-2.43v-2.42h4.85v2.42h7.26v-2.42h-4.84v-2.43h2.44v-2.42h-.01 2.42v2.42h2.43v2.43h2.42v-2.43h2.42v2.43h2.43v2.42h2.42v4.85h-4.85v2.42h2.43v4.85h-2.43v-2.42zm-2.43-9.7v4.85h2.43v2.425h2.42v-4.855h2.42v-2.42z"/><path d="m43.64 77.58h2.42v2.42h-2.42zm16.97 2.42h-7.28v-2.42h7.28z"/></g></svg>