<svg width="114" height="34" fill="none" xmlns="http://www.w3.org/2000/svg">
  <path fill-rule="evenodd" clip-rule="evenodd" d="M19.04 27c-5.2 0-7.8 0-9.42-1.62C8 23.77 8 21.16 8 15.96v-.92c0-5.2 0-7.8 1.62-9.42C11.23 4 13.84 4 19.04 4h.92c5.2 0 7.8 0 9.42 1.62C31 7.23 31 9.84 31 15.04v.92c0 5.2 0 7.8-1.62 9.42C27.77 27 25.16 27 19.96 27h-.92Z" fill="#2B71F6"/>
  <path d="M20.83 17.67a1.34 1.34 0 0 1-1.02-1.3V9.15c0-.7.66-1.2 1.34-1.04l4.3 1.07c.6.15 1.01.69 1.01 1.3v7.22c0 .7-.66 1.21-1.34 1.04l-4.3-1.07ZM12.73 21a1.34 1.34 0 0 1-1.01-1.3v-7.23c0-.7.66-1.2 1.34-1.03l4.3 1.07c.6.15 1.01.68 1.01 1.3v7.22c0 .7-.66 1.2-1.34 1.04l-4.3-1.08Z" fill="#fff"/>
  <path d="M16.78 19.33a1.34 1.34 0 0 1-1.02-1.3v-7.22c0-.7.66-1.2 1.34-1.04l4.3 1.08c.6.15 1.02.68 1.02 1.3v7.22c0 .7-.66 1.2-1.34 1.03l-4.3-1.07Z" fill="#fff"/>
  <path d="M19.6 20.04a.44.44 0 0 1-.34-.41l-.18-5.52a1.72 1.72 0 0 0-1.16-1.48.08.08 0 0 0-.09.03.06.06 0 0 0 .02.09c.14.1.52.46.52 1.07v5.9l1.22.32Zm4.04-1.67a.43.43 0 0 1-.33-.4l-.19-5.52a1.72 1.72 0 0 0-1.16-1.48.08.08 0 0 0-.08.03.06.06 0 0 0 .01.08c.14.11.53.47.53 1.08v5.9l1.22.31Z" fill="#2B71F6"/>
  <path d="M37.36 13.54h.68V12h5.1v1.54h.68v-2.16h-.55V4.8h-3.98l-.12 2.27c-.14 2.68-.89 3.77-1.43 4.31h-.38v2.16Zm2.59-8.08h2.61v5.9h-3.99c.51-.57 1.17-1.65 1.3-4.29l.08-1.61Zm5.48 3.99c0-1.48.7-2.09 1.58-2.09.88 0 1.58.61 1.58 2.09s-.7 2.09-1.58 2.09c-.88 0-1.58-.61-1.58-2.09Zm3.85-.02c0-1.81-1.02-2.65-2.25-2.65-1.24 0-2.3.84-2.3 2.69 0 1.83 1.04 2.65 2.26 2.65 1.25 0 2.29-.86 2.29-2.69Zm4.74-2.19a2.32 2.32 0 0 0-1.42-.46c-1.34 0-2.32.92-2.32 2.73 0 1.77.94 2.61 2.24 2.61.56 0 1.11-.16 1.52-.49l-.2-.56c-.33.28-.73.47-1.23.47-.96 0-1.64-.69-1.64-2.09 0-1.41.7-2.08 1.62-2.08.5 0 .84.19 1.23.48l.2-.61Zm.7.25h1.82V12h.7V7.49h1.82V6.9h-4.35v.59Zm5.03 6.63c.13.03.32.04.47.04.97 0 1.42-.4 2.11-2.28l1.83-4.98h-.7l-1.57 4.41-1.53-4.41h-.73l1.78 4.98h.24c-.5 1.38-.85 1.68-1.44 1.68-.19 0-.3-.03-.46-.06v.62ZM68.5 12h.7V6.9h-3.98V12h.7V7.49h2.58V12Zm5.72 0h.69V6.9h-.7v2.11h-2.74V6.9h-.7V12h.7V9.59h2.75V12Zm2.68-2.55c0-1.48.7-2.09 1.58-2.09.88 0 1.58.61 1.58 2.09s-.7 2.09-1.58 2.09c-.88 0-1.58-.61-1.58-2.09Zm3.85-.02c0-1.81-1.02-2.65-2.25-2.65-1.24 0-2.29.84-2.29 2.69 0 1.83 1.03 2.65 2.25 2.65 1.25 0 2.3-.86 2.3-2.69Zm3.5 2.57h2.18c1.24 0 1.83-.51 1.83-1.37 0-.61-.3-1.07-.98-1.26.52-.19.77-.58.77-1.13 0-.89-.64-1.34-1.72-1.34h-2.08V12Zm.68-.55V9.68h1.44c.9 0 1.2.33 1.2.89 0 .55-.3.88-1.2.88h-1.44Zm0-2.32V7.47h1.29c.8 0 1.15.26 1.15.83s-.34.83-1.15.83h-1.3ZM43.97 28h1.96l-2.5-4.4c1.31-.37 2.08-1.26 2.08-2.77 0-1.94-1.27-2.91-3.44-2.91h-3.88V28h1.74v-4.23h1.69L43.97 28Zm-4.04-5.54v-3.03h1.96c1.28 0 1.89.44 1.89 1.51 0 1.08-.6 1.52-1.9 1.52h-1.95Zm14.04-1.6h-1.73v5a2.9 2.9 0 0 1-1.86.85c-.55 0-.89-.24-.89-.98v-4.87h-1.73v5.32c0 1.48.81 1.99 1.9 1.99 1.05 0 1.92-.48 2.58-1.12V28h1.73v-7.14Zm1.91 6.45c.93.55 2.07.86 3.18.86 2.2 0 3.65-1.2 3.65-3.15 0-3.54-4.78-2.3-4.78-4.44 0-.77.63-1.3 1.65-1.3.87 0 1.68.38 2.4.88l.45-1.57a5.15 5.15 0 0 0-2.84-.84c-2.03 0-3.43 1.16-3.43 3.01 0 3.42 4.79 2.2 4.79 4.48 0 .88-.71 1.46-1.89 1.46-.95 0-1.88-.38-2.73-.9l-.45 1.51Zm8.05-5.1h1.2v3.84c0 1.57.52 2.03 1.98 2.03a7 7 0 0 0 1.32-.12v-1.39c-.24.07-.52.14-.84.14-.55 0-.72-.2-.72-.92V22.2h1.56v-1.34h-1.56v-2.38h-1.73v2.38h-1.2v1.34Zm7.5 2.25c0-1.75.74-2.44 1.63-2.44.9 0 1.63.69 1.63 2.44s-.73 2.43-1.63 2.43c-.9 0-1.62-.68-1.62-2.43Zm5-.06c0-2.55-1.53-3.7-3.34-3.7-1.83 0-3.39 1.18-3.39 3.76 0 2.55 1.53 3.7 3.33 3.7 1.84 0 3.4-1.18 3.4-3.76Zm6.02-3.67a1.98 1.98 0 0 0-.43-.04c-.96 0-1.67.6-2.08 1.28v-1.11h-1.73V28h1.73v-4.76a3 3 0 0 1 2.06-.98c.16 0 .34.01.45.03v-1.56Zm4.35 1.22c.84 0 1.42.56 1.43 1.85h-3.07c.12-1.22.76-1.85 1.64-1.85Zm3.01 2.97c.03-.25.04-.5.04-.76 0-2.33-1.19-3.47-3-3.47-1.94 0-3.44 1.33-3.44 3.84 0 2.4 1.38 3.64 3.5 3.64a6.1 6.1 0 0 0 2.75-.66l-.37-1.25c-.77.38-1.45.6-2.15.6-1.1 0-1.84-.53-1.95-1.94h4.62Z" fill="#93989D"/>
  <path opacity=".15" d="M4.23 33.5A3.71 3.71 0 0 1 .5 29.75V4.25A3.76 3.76 0 0 1 4.23.5h105.54a3.71 3.71 0 0 1 3.73 3.75v25.5a3.77 3.77 0 0 1-3.73 3.75H4.23Z" stroke="#4B545B"/>
</svg>
